<?xml version="1.0" encoding="UTF-8" standalone="no"?>
<!-- Created with Inkscape (http://www.inkscape.org/) -->

<svg
   xmlns:dc="http://purl.org/dc/elements/1.1/"
   xmlns:cc="http://creativecommons.org/ns#"
   xmlns:rdf="http://www.w3.org/1999/02/22-rdf-syntax-ns#"
   xmlns:svg="http://www.w3.org/2000/svg"
   xmlns="http://www.w3.org/2000/svg"
   xmlns:sodipodi="http://sodipodi.sourceforge.net/DTD/sodipodi-0.dtd"
   xmlns:inkscape="http://www.inkscape.org/namespaces/inkscape"
   width="64"
   height="32"
   viewBox="0 0 64 32"
   version="1.1"
   id="svg8"
   sodipodi:docname="cryptrest_logo-64x32.svg"
   inkscape:version="0.92.1 r15371">
  <defs
     id="defs2" />
  <sodipodi:namedview
     id="base"
     pagecolor="#ffffff"
     bordercolor="#666666"
     borderopacity="1.0"
     inkscape:pageopacity="0.0"
     inkscape:pageshadow="2"
     inkscape:zoom="10.03"
     inkscape:cx="52.759721"
     inkscape:cy="33.120354"
     inkscape:document-units="px"
     inkscape:current-layer="layer1"
     showgrid="false"
     units="px"
     scale-x="0.26458"
     inkscape:window-width="3840"
     inkscape:window-height="2092"
     inkscape:window-x="0"
     inkscape:window-y="49"
     inkscape:window-maximized="1"
     fit-margin-top="0"
     fit-margin-left="0"
     fit-margin-right="0"
     fit-margin-bottom="0"
     inkscape:pagecheckerboard="true" />
  <metadata
     id="metadata5">
    <rdf:RDF>
      <cc:Work
         rdf:about="">
        <dc:format>image/svg+xml</dc:format>
        <dc:type
           rdf:resource="http://purl.org/dc/dcmitype/StillImage" />
        <dc:title></dc:title>
      </cc:Work>
    </rdf:RDF>
  </metadata>
  <g
     inkscape:label="Layer 1"
     inkscape:groupmode="layer"
     id="layer1"
     transform="translate(7.4999997e-7,-312.06667)">
    <g
       id="g7054"
       transform="matrix(0.49999999,0,0,0.49999999,-2.4999999e-7,172.03334)">
      <g
         id="g7037">
        <path
           style="opacity:1;fill:#058545;fill-opacity:1;fill-rule:evenodd;stroke:#ffffff;stroke-width:0;stroke-miterlimit:4;stroke-dasharray:none;stroke-opacity:1"
           d="m 0,0 v 4 56 4 H 4 56 V 60 H 4 V 4 H 56 V 0 Z"
           transform="translate(-4.9999998e-7,280.06667)"
           id="rect4485-6-3"
           inkscape:connector-curvature="0" />
        <g
           id="g7010">
          <path
             id="rect4485-5-9"
             transform="translate(-4.9999998e-7,280.06667)"
             d="m 8,8 v 4 4 8 h 4 v -8 h 4 V 12 H 12 V 8 Z m 8,4 h 8 V 8 h -8 z"
             style="opacity:1;fill:#414747;fill-opacity:1;fill-rule:evenodd;stroke:#ffffff;stroke-width:0;stroke-miterlimit:4;stroke-dasharray:none;stroke-opacity:1"
             inkscape:connector-curvature="0" />
          <path
             id="rect4485-8"
             transform="translate(-4.9999998e-7,280.06667)"
             d="m 32,8 v 4 8 4 8 h 4 V 24 H 48 V 20 8 H 36 Z m 4,4 h 8 v 8 h -8 z"
             style="opacity:1;fill:#414747;fill-opacity:1;fill-rule:evenodd;stroke:#ffffff;stroke-width:0;stroke-miterlimit:4;stroke-dasharray:none;stroke-opacity:1"
             inkscape:connector-curvature="0" />
          <path
             id="rect4485-8-6"
             transform="translate(-4.9999998e-7,280.06667)"
             d="m 12,32 v 12 4 h 12 v 4 H 12 v 4 h 12 4 V 52 48 44 32 H 24 V 44 H 16 V 32 Z"
             style="opacity:1;fill:#414747;fill-opacity:1;fill-rule:evenodd;stroke:#ffffff;stroke-width:0;stroke-miterlimit:4;stroke-dasharray:none;stroke-opacity:1"
             inkscape:connector-curvature="0" />
          <path
             id="rect4485-8-3"
             transform="translate(-4.9999998e-7,280.06667)"
             d="m 48,32 v 4 h -4 v 4 h 4 v 12 4 h 4 4 V 52 H 52 V 40 h 4 v -4 h -4 v -4 z"
             style="opacity:1;fill:#414747;fill-opacity:1;fill-rule:evenodd;stroke:#ffffff;stroke-width:0;stroke-miterlimit:4;stroke-dasharray:none;stroke-opacity:1"
             inkscape:connector-curvature="0" />
        </g>
      </g>
      <g
         id="g7029">
        <path
           style="opacity:1;fill:#058545;fill-opacity:1;fill-rule:evenodd;stroke:#ffffff;stroke-width:0;stroke-miterlimit:4;stroke-dasharray:none;stroke-opacity:1"
           d="m 64,0 v 4 8 4 12 h 4 V 16 h 16 v 4 h 4 v -4 h 4 V 12 0 H 68 Z m 24,20 v 8 h 4 V 20 Z M 68,4 h 20 v 8 H 68 Z"
           transform="translate(-4.9999998e-7,280.06667)"
           id="rect4485"
           inkscape:connector-curvature="0" />
        <path
           style="opacity:1;fill:#058545;fill-opacity:1;fill-rule:evenodd;stroke:#ffffff;stroke-width:0;stroke-miterlimit:4;stroke-dasharray:none;stroke-opacity:1"
           d="m 100,0 v 4 8 4 8 4 h 4 24 v -4 h -24 v -8 h 24 V 12 H 104 V 4 h 24 V 0 h -24 z"
           transform="translate(-4.9999998e-7,280.06667)"
           id="rect4485-6"
           inkscape:connector-curvature="0" />
        <path
           style="opacity:1;fill:#058545;fill-opacity:1;fill-rule:evenodd;stroke:#ffffff;stroke-width:0;stroke-miterlimit:4;stroke-dasharray:none;stroke-opacity:1"
           d="m 64,36 v 4 8 4 h 4 20 v 8 H 64 v 4 H 92 V 60 48 H 68 V 40 H 92 V 36 H 68 Z"
           transform="translate(-4.9999998e-7,280.06667)"
           id="rect4485-5"
           inkscape:connector-curvature="0" />
        <path
           style="opacity:1;fill:#058545;fill-opacity:1;fill-rule:evenodd;stroke:#ffffff;stroke-width:0;stroke-miterlimit:4;stroke-dasharray:none;stroke-opacity:1"
           d="m 100,36 v 4 h 12 v 24 h 4 V 40 h 12 v -4 h -12 -4 z"
           transform="translate(-4.9999998e-7,280.06667)"
           id="rect4485-6-2"
           inkscape:connector-curvature="0" />
        <g
           id="g7020">
          <path
             id="rect4485-3-7-9"
             transform="translate(-4.9999998e-7,280.06667)"
             d="m 124,56 v 4 h -4 v 4 h 4 4 v -4 -4 z"
             style="opacity:1;fill:#414747;fill-opacity:1;fill-rule:evenodd;stroke:#ffffff;stroke-width:0;stroke-miterlimit:4;stroke-dasharray:none;stroke-opacity:1"
             inkscape:connector-curvature="0" />
          <rect
             y="340.06665"
             x="124"
             height="3.9999998"
             width="4.0000005"
             id="rect4485-3-8"
             style="opacity:1;fill:#058545;fill-opacity:1;fill-rule:evenodd;stroke:#ffffff;stroke-width:0;stroke-miterlimit:4;stroke-dasharray:none;stroke-opacity:1" />
        </g>
      </g>
    </g>
  </g>
</svg>
