<?xml version="1.0" standalone="no"?>
<!DOCTYPE svg PUBLIC "-//W3C//DTD SVG 20010904//EN"
 "http://www.w3.org/TR/2001/REC-SVG-20010904/DTD/svg10.dtd">
<svg version="1.0" xmlns="http://www.w3.org/2000/svg"
 width="700.000000pt" height="700.000000pt" viewBox="0 0 700.000000 700.000000"
 preserveAspectRatio="xMidYMid meet">
<metadata>
Created by potrace 1.11, written by Peter Selinger 2001-2013
</metadata>
<g transform="translate(0.000000,700.000000) scale(0.100000,-0.100000)"
fill="#000000" stroke="none">
<path d="M0 3500 l0 -3500 3500 0 3500 0 0 220 0 220 -3280 0 -3280 0 0 3060
0 3060 3280 0 3280 0 0 220 0 220 -3500 0 -3500 0 0 -3500z"/>
<path d="M870 5250 l0 -880 225 0 225 0 0 440 0 440 215 0 215 0 0 215 0 215
440 0 440 0 0 225 0 225 -440 0 -440 0 0 -220 0 -220 -215 0 -215 0 0 220 0
220 -225 0 -225 0 0 -880z"/>
<path d="M3500 4815 l0 -1315 220 0 220 0 0 435 0 435 655 0 655 0 0 880 0
880 -875 0 -875 0 0 -1315z m1310 435 l0 -430 -435 0 -435 0 0 430 0 430 435
0 435 0 0 -430z"/>
<path d="M1310 2625 l0 -875 655 0 655 0 0 -215 0 -215 -655 0 -655 0 0 -225
0 -225 880 0 880 0 0 1315 0 1315 -225 0 -225 0 0 -655 0 -655 -435 0 -435 0
0 655 0 655 -220 0 -220 0 0 -875z"/>
<path d="M5250 3285 l0 -215 -220 0 -220 0 0 -225 0 -225 220 0 220 0 0 -875
0 -875 440 0 440 0 0 225 0 225 -220 0 -220 0 0 650 0 650 220 0 220 0 0 225
0 225 -220 0 -220 0 0 215 0 215 -220 0 -220 0 0 -215z"/>
</g>
</svg>
