<svg version="1" xmlns="http://www.w3.org/2000/svg" width="933.333" height="933.333" viewBox="0 0 700.000000 700.000000"><path d="M0 350v350h700v-43.7H372.5c-180.1 0-327.8-.3-328.2-.6-.3-.4-.6-138.2-.6-306.3V43.7l327.9-.1 327.9-.1.3-21.8L700 0H0v350z"/><path d="M88.2 88.5c-.8 1.2-1 173.4-.2 173.6.3.1 10.1.2 21.8.3l21.2.1.1-3c0-1.6.1-21.3.1-43.8V175H175v-43.9l-21.7.1h-21.8l-.2-19.8c-.1-11-.2-20.8-.2-21.9-.1-2-.7-2-21.2-2-13.2 0-21.3.3-21.7 1zM175 109.2c0 16.7.3 21.8 1.3 21.9 1.5.1 83.9 0 85.2 0 .7-.1 1-7.8 1-21.8V87.5H175v21.7zM350 218.7V350h43.7l.1-40.3c0-22.1.1-41.8.1-43.8l.1-3.5 65.5.2 65.5.2V87.4H350v131.3zm131-84.3c.1 4.1.1 79.5 0 82.3v2.1h-43.5c-39.5 0-43.5-.2-43.6-1.7-.1-2-.1-85.5 0-85.7.1-.1 19.7-.2 43.6-.2l43.5.1v3.1zM131.1 437.5V525l65.7.2 65.7.3v43l-61.5.2c-33.8 0-63.4.2-65.7.2l-4.2.1v21.5c0 11.8.3 21.5.7 21.6.4.1 39.7.2 87.5.4 63.4.2 86.7-.1 86.8-.9.1-.6.2-59.7.3-131.3l.1-130.3h-44l.1 64.7c0 35.7-.1 65.2-.3 65.8-.2.6-12.4.9-34.6.8-18.8-.1-38.4-.2-43.4-.3H175V350h-43.8l-.1 87.5zM525 371.9v21.9h-18.2c-10.1 0-20 .1-22 .1l-3.7.1v21.5c0 16 .3 21.5 1.2 21.6.7.1 10 .3 20.7.4 10.7.1 20.1.3 20.8.4.9.1 1.2 18.3 1.2 87.6V613l43.3-.4c23.7-.2 43.4-.4 43.7-.5.3-.1.5-9.8.5-21.6V569l-5-.1H569l-.1-2.7c-.3-18.8-.3-128.2.1-128.3.3-.1 10.2-.2 22-.3l21.5-.1v-21.8c0-13.9-.3-21.7-1-21.8-.5 0-10.1-.1-21.3-.1-11.8-.1-20.5-.5-20.9-1-.3-.6-.5-10.4-.5-21.9l.1-20.9H525v21.9z"/></svg>